<?xml version="1.0" encoding="UTF-8"?>
<svg version="1.1" xmlns="http://www.w3.org/2000/svg" width="512" height="512">
<path d="M0 0 C1.03864197 -0.00151062 1.03864197 -0.00151062 2.0982666 -0.00305176 C65.93081642 0.05904572 126.5049726 24.19510552 173.53125 67.12890625 C175.67424312 69.06831503 177.85844638 70.94329299 180.0625 72.8125 C183.36494908 75.6922356 186.22941822 78.78028659 189.0546875 82.125 C190.27592463 83.55065021 191.532291 84.94688685 192.8203125 86.3125 C209.98510184 104.55404734 223.43702329 126.55993058 233.875 149.25 C234.19919922 149.94818848 234.52339844 150.64637695 234.85742188 151.36572266 C255.84646767 197.13861735 261.81750242 248.68496488 253.875 298.25 C253.7193457 299.22775391 253.56369141 300.20550781 253.40332031 301.21289062 C246.78720562 340.80393223 229.82314078 379.77553668 204.875 411.25 C203.91013672 412.50296875 203.91013672 412.50296875 202.92578125 413.78125 C198.77053108 419.10806157 194.34309744 424.1223482 189.73095703 429.05273438 C187.65211107 431.27925792 185.66248102 433.51811299 183.76953125 435.90625 C182.05956452 438.02167275 180.38762109 439.69403974 178.3125 441.4375 C176.0157313 443.39059163 173.7655079 445.35390577 171.578125 447.4296875 C153.05614538 464.97379863 130.91903906 478.49695208 107.875 489.25 C106.83472656 489.74628906 105.79445313 490.24257813 104.72265625 490.75390625 C85.03604538 499.68466792 64.13407699 505.58081644 42.875 509.25 C42.15473633 509.37455566 41.43447266 509.49911133 40.69238281 509.62744141 C-8.60175881 517.89210748 -60.92777994 510.2936598 -106.125 489.25 C-106.81207031 488.93063477 -107.49914062 488.61126953 -108.20703125 488.28222656 C-124.59283935 480.56711137 -139.7904274 471.30785184 -154.125 460.25 C-155.47851562 459.21746094 -155.47851562 459.21746094 -156.859375 458.1640625 C-162.11900992 454.06020723 -167.05933316 449.65966743 -171.9284668 445.10546875 C-174.15463813 443.02664821 -176.39333206 441.03730739 -178.78125 439.14453125 C-180.89667275 437.43456452 -182.56903974 435.76262109 -184.3125 433.6875 C-186.26559163 431.3907313 -188.22890577 429.1405079 -190.3046875 426.953125 C-223.15976206 392.26678399 -244.64666977 345.22568096 -252.125 298.25 C-252.28581055 297.24646484 -252.44662109 296.24292969 -252.61230469 295.20898438 C-256.71460252 268.362194 -256.41936728 241.04891727 -252.125 214.25 C-251.9693457 213.27224609 -251.81369141 212.29449219 -251.65332031 211.28710938 C-243.64107626 163.34158506 -221.00776509 119.47644262 -188.37890625 83.7265625 C-186.8507804 82.04747795 -185.33814142 80.35419177 -183.83984375 78.6484375 C-179.22349488 73.40654564 -174.47809537 68.72478093 -169.125 64.25 C-167.74248047 63.03570312 -167.74248047 63.03570312 -166.33203125 61.796875 C-153.86356919 50.89638647 -140.30951015 41.47077474 -125.92382812 33.27490234 C-124.18699601 32.28532292 -122.46045982 31.27773978 -120.734375 30.26953125 C-84.19131934 9.7447881 -41.68808636 0.04261817 0 0 Z " fill="#893850" transform="translate(255.125,-0.25)"/>
<path d="M0 0 C1.40451416 0.07782715 1.40451416 0.07782715 2.83740234 0.15722656 C21.07737498 1.32114906 38.79992584 6.39669821 56.1875 11.8125 C56.1875 15.1125 56.1875 18.4125 56.1875 21.8125 C45.9575 21.8125 35.7275 21.8125 25.1875 21.8125 C25.1875 22.4725 25.1875 23.1325 25.1875 23.8125 C32.1175 23.8125 39.0475 23.8125 46.1875 23.8125 C46.1875 24.8025 46.1875 25.7925 46.1875 26.8125 C39.2575 26.8125 32.3275 26.8125 25.1875 26.8125 C25.1875 28.7925 25.1875 30.7725 25.1875 32.8125 C10.0075 32.8125 -5.1725 32.8125 -20.8125 32.8125 C-20.8125 34.4625 -20.8125 36.1125 -20.8125 37.8125 C-5.6325 37.8125 9.5475 37.8125 25.1875 37.8125 C25.1875 38.8025 25.1875 39.7925 25.1875 40.8125 C27.4975 40.8125 29.8075 40.8125 32.1875 40.8125 C32.1875 44.7725 32.1875 48.7325 32.1875 52.8125 C13.0475 52.8125 -6.0925 52.8125 -25.8125 52.8125 C-25.8125 53.8025 -25.8125 54.7925 -25.8125 55.8125 C-9.3125 55.8125 7.1875 55.8125 24.1875 55.8125 C24.1875 56.8025 24.1875 57.7925 24.1875 58.8125 C19.5675 58.8125 14.9475 58.8125 10.1875 58.8125 C10.1875 60.1325 10.1875 61.4525 10.1875 62.8125 C14.8075 62.8125 19.4275 62.8125 24.1875 62.8125 C24.1875 63.8025 24.1875 64.7925 24.1875 65.8125 C31.4475 65.8125 38.7075 65.8125 46.1875 65.8125 C46.1875 71.0925 46.1875 76.3725 46.1875 81.8125 C39.2575 81.8125 32.3275 81.8125 25.1875 81.8125 C25.1875 84.1225 25.1875 86.4325 25.1875 88.8125 C56.2075 88.8125 87.2275 88.8125 119.1875 88.8125 C119.1875 94.0925 119.1875 99.3725 119.1875 104.8125 C107.9675 104.8125 96.7475 104.8125 85.1875 104.8125 C85.1875 107.7825 85.1875 110.7525 85.1875 113.8125 C55.8175 113.8125 26.4475 113.8125 -3.8125 113.8125 C-3.8125 115.7925 -3.8125 117.7725 -3.8125 119.8125 C25.5575 119.8125 54.9275 119.8125 85.1875 119.8125 C85.1875 121.4625 85.1875 123.1125 85.1875 124.8125 C63.0775 124.8125 40.9675 124.8125 18.1875 124.8125 C18.1875 128.4425 18.1875 132.0725 18.1875 135.8125 C40.2975 135.8125 62.4075 135.8125 85.1875 135.8125 C85.1875 137.7925 85.1875 139.7725 85.1875 141.8125 C93.1075 141.8125 101.0275 141.8125 109.1875 141.8125 C109.1875 144.1225 109.1875 146.4325 109.1875 148.8125 C134.9275 148.8125 160.6675 148.8125 187.1875 148.8125 C187.5175 150.4625 187.8475 152.1125 188.1875 153.8125 C175.3175 153.8125 162.4475 153.8125 149.1875 153.8125 C149.1875 155.7925 149.1875 157.7725 149.1875 159.8125 C162.7175 159.8125 176.2475 159.8125 190.1875 159.8125 C190.5175 161.4625 190.8475 163.1125 191.1875 164.8125 C171.7175 164.8125 152.2475 164.8125 132.1875 164.8125 C132.1875 168.7725 132.1875 172.7325 132.1875 176.8125 C151.6575 176.8125 171.1275 176.8125 191.1875 176.8125 C191.1875 180.1125 191.1875 183.4125 191.1875 186.8125 C182.6075 186.8125 174.0275 186.8125 165.1875 186.8125 C165.1875 187.8025 165.1875 188.7925 165.1875 189.8125 C173.7675 189.8125 182.3475 189.8125 191.1875 189.8125 C191.1875 191.1325 191.1875 192.4525 191.1875 193.8125 C155.2175 193.8125 119.2475 193.8125 82.1875 193.8125 C82.1875 195.4625 82.1875 197.1125 82.1875 198.8125 C118.1575 198.8125 154.1275 198.8125 191.1875 198.8125 C191.1875 201.4525 191.1875 204.0925 191.1875 206.8125 C187.8875 206.8125 184.5875 206.8125 181.1875 206.8125 C181.1875 210.1125 181.1875 213.4125 181.1875 216.8125 C187.1275 216.8125 193.0675 216.8125 199.1875 216.8125 C199.1875 218.1325 199.1875 219.4525 199.1875 220.8125 C183.6775 220.8125 168.1675 220.8125 152.1875 220.8125 C152.1875 224.1125 152.1875 227.4125 152.1875 230.8125 C170.0075 230.8125 187.8275 230.8125 206.1875 230.8125 C201.1875 236.8125 201.1875 236.8125 198.87785339 237.5340271 C198.08953629 237.52070343 197.30121918 237.50737976 196.48901367 237.49365234 C195.58845749 237.49319916 194.68790131 237.49274597 193.76005554 237.49227905 C192.32228508 237.44582748 192.32228508 237.44582748 190.85546875 237.3984375 C189.36784782 237.38570297 189.36784782 237.38570297 187.85017395 237.37271118 C184.6906654 237.33919358 181.53373361 237.26391516 178.375 237.1875 C176.22985463 237.15739838 174.08466916 237.13002292 171.93945312 237.10546875 C166.6879268 237.03940856 161.43789748 236.93907785 156.1875 236.8125 C156.1875 239.1225 156.1875 241.4325 156.1875 243.8125 C145.9575 243.8125 135.7275 243.8125 125.1875 243.8125 C125.1875 244.4725 125.1875 245.1325 125.1875 245.8125 C117.2675 245.8125 109.3475 245.8125 101.1875 245.8125 C101.1875 247.1325 101.1875 248.4525 101.1875 249.8125 C111.0875 249.8125 120.9875 249.8125 131.1875 249.8125 C131.1875 252.1225 131.1875 254.4325 131.1875 256.8125 C128.8775 256.8125 126.5675 256.8125 124.1875 256.8125 C124.1875 259.4525 124.1875 262.0925 124.1875 264.8125 C126.8275 264.8125 129.4675 264.8125 132.1875 264.8125 C132.1875 266.4625 132.1875 268.1125 132.1875 269.8125 C135.4875 269.8125 138.7875 269.8125 142.1875 269.8125 C142.1875 270.1425 142.1875 270.4725 142.1875 270.8125 C89.35780822 277.84803856 36.44355039 284.05896484 -16.9375 284 C-17.87739777 283.99972809 -18.81729553 283.99945618 -19.78567505 283.99917603 C-44.35422472 283.96685953 -68.85255521 283.19195191 -93.13623047 279.22460938 C-96.02469315 278.77982512 -98.9160959 278.40627814 -101.81640625 278.046875 C-118.05762396 276.02964991 -134.22016276 273.5650956 -150.37799072 270.96636963 C-152.8049742 270.5768349 -155.23249673 270.19064181 -157.6605835 269.80804443 C-170.33812549 267.80455274 -182.76013605 265.63578147 -195.05249023 261.8984375 C-198.90809548 260.78489084 -202.68210655 259.98495006 -206.625 259.25 C-213.53765729 257.95107736 -220.14242773 256.02835875 -226.8125 253.8125 C-229.34484946 244.6161489 -229.12703904 235.32515791 -229.0625 225.875 C-229.05873352 225.04558899 -229.05496704 224.21617798 -229.05108643 223.3616333 C-228.70722991 158.93910338 -202.8770154 102.88320777 -158.3125 57.125 C-138.11457661 37.28267386 -100.35764025 8.88286856 -70.90625 7.6953125 C-70.2153125 7.73398437 -69.524375 7.77265625 -68.8125 7.8125 C-72.16653479 11.87264738 -75.60357167 15.57618687 -79.4375 19.1875 C-106.81653465 46.4844386 -117.93095249 84.47616998 -121.8125 121.8125 C-121.04808594 121.86148438 -120.28367187 121.91046875 -119.49609375 121.9609375 C-110.86981222 122.5630125 -102.36935209 123.59347405 -93.8125 124.8125 C-93.72613281 123.69617188 -93.63976562 122.57984375 -93.55078125 121.4296875 C-90.95913095 91.36198578 -82.27417607 58.19162177 -60.8125 35.8125 C-60.27641113 35.23838379 -59.74032227 34.66426758 -59.18798828 34.07275391 C-46.03732954 20.0408096 -32.07169725 10.21599033 -14.8125 1.8125 C-14.02617187 1.39613281 -13.23984375 0.97976562 -12.4296875 0.55078125 C-8.28400434 -0.61867266 -4.26992334 -0.2529303 0 0 Z " fill="#B82E43" transform="translate(255.8125,30.1875)"/>
<path d="M0 0 C5.18492165 0.90530378 10.17760617 2.01242402 15.20703125 3.57348633 C37.58745371 10.51218979 60.96107735 14.88662739 84 19 C85.15274414 19.20866699 86.30548828 19.41733398 87.49316406 19.63232422 C103.56880883 22.5059273 119.62832347 24.63503616 135.875 26.25 C136.70654602 26.33299347 137.53809204 26.41598694 138.39483643 26.50149536 C143.92626014 27.04696186 149.46042388 27.54487661 155 28 C156.28890137 28.10602539 157.57780273 28.21205078 158.90576172 28.32128906 C173.37212575 29.33424315 187.88007352 29.24444503 202.375 29.25 C203.08015873 29.25058914 203.78531746 29.25117828 204.51184464 29.25178528 C229.44620025 29.26644862 254.17181014 28.42588432 279 26 C280.20061066 25.88401459 280.20061066 25.88401459 281.42547607 25.76568604 C300.58563495 23.90526614 319.69985725 21.61824516 338.79931641 19.21899414 C340.08370605 19.05906982 341.3680957 18.89914551 342.69140625 18.734375 C343.81748291 18.59225586 344.94355957 18.45013672 346.10375977 18.30371094 C349 18 349 18 353 18 C353 20.97 353 23.94 353 27 C363.56 27 374.12 27 385 27 C385 28.98 385 30.96 385 33 C367.18 33 349.36 33 331 33 C331 34.98 331 36.96 331 39 C348.82 39 366.64 39 385 39 C385 39.99 385 40.98 385 42 C357.28 42 329.56 42 301 42 C301 44.31 301 46.62 301 49 C322.78 49 344.56 49 367 49 C367 53.29 367 57.58 367 62 C365.68 62 364.36 62 363 62 C363 63.32 363 64.64 363 66 C367.95 66 372.9 66 378 66 C373.62232216 74.00058363 373.62232216 74.00058363 371 76 C367.99731445 76.34057617 367.99731445 76.34057617 364.36328125 76.29296875 C363.06455078 76.28330078 361.76582031 76.27363281 360.42773438 76.26367188 C359.05598361 76.23860585 357.68423882 76.21321101 356.3125 76.1875 C354.92905076 76.1724502 353.54558599 76.1587623 352.16210938 76.14648438 C348.77434793 76.11107223 345.38736861 76.06168054 342 76 C342 77.65 342 79.3 342 81 C332.1 81 322.2 81 312 81 C312 81.66 312 82.32 312 83 C304.41 83 296.82 83 289 83 C289 84.32 289 85.64 289 87 C304.51 87 320.02 87 336 87 C336 89.31 336 91.62 336 94 C328.08 94 320.16 94 312 94 C312 96.97 312 99.94 312 103 C323.22 103 334.44 103 346 103 C342 107 342 107 339.92449951 107.48101807 C339.18725647 107.47213562 338.45001343 107.46325317 337.69042969 107.45410156 C336.84986023 107.45379944 336.00929077 107.45349731 335.14324951 107.45318604 C334.24519592 107.43254089 333.34714233 107.41189575 332.421875 107.390625 C331.4953009 107.38496521 330.56872681 107.37930542 329.61407471 107.37347412 C326.65885438 107.35110921 323.70485295 107.30091262 320.75 107.25 C318.7448092 107.22993515 316.73959936 107.21168435 314.734375 107.1953125 C309.82244806 107.151244 304.91143058 107.08221555 300 107 C300 107.66 300 108.32 300 109 C288.78 109 277.56 109 266 109 C266 112.63 266 116.26 266 120 C237.62 120 209.24 120 180 120 C180 123.3 180 126.6 180 130 C208.38 130 236.76 130 266 130 C266 131.98 266 133.96 266 136 C246.2 136 226.4 136 206 136 C206 136.99 206 137.98 206 139 C234.38 139 262.76 139 292 139 C278.88191545 148.83856341 265.81096889 148.78159358 250.0625 148.375 C248.01110733 148.34483008 245.95967137 148.31746682 243.90820312 148.29296875 C238.93771133 148.22760565 233.96934819 148.12448107 229 148 C229 148.66 229 149.32 229 150 C208.87 150 188.74 150 168 150 C168 151.65 168 153.3 168 155 C136.14869132 152.87974613 103.62002906 135.70299776 79 116 C78.08992188 115.28199219 77.17984375 114.56398438 76.2421875 113.82421875 C38.94257457 83.91014171 14.33369218 45.44431954 0 0 Z " fill="#B82E43" transform="translate(36,319)"/>
<path d="M0 0 C2.41426227 0.94365867 4.13496813 2.15550543 6.17871094 3.75024414 C6.9328125 4.33354492 7.68691406 4.9168457 8.46386719 5.51782227 C9.62982422 6.4353125 9.62982422 6.4353125 10.81933594 7.37133789 C11.61210938 7.98686523 12.40488281 8.60239258 13.22167969 9.23657227 C15.17550369 10.75490537 17.12442873 12.27911065 19.06933594 13.80883789 C17.53396907 16.96798285 15.75811247 19.73257731 13.75683594 22.62133789 C5.28550129 36.07268308 2.4209155 51.1689876 5.46923828 66.8684082 C8.35571656 77.8642402 15.40286406 86.95901727 25.06933594 92.80883789 C35.32915416 98.09112054 46.0209162 99.77813977 57.38183594 96.62133789 C70.10841392 92.15660398 78.86383001 84.80512534 85.06933594 72.80883789 C90.10421022 60.88803259 90.96470782 48.90457738 86.06933594 36.80883789 C85.49183594 35.69508789 84.91433594 34.58133789 84.31933594 33.43383789 C83.06933594 30.80883789 83.06933594 30.80883789 83.23632812 28.84912109 C84.96489221 24.61535496 89.65279911 22.47219524 93.31933594 19.99633789 C94.60904297 19.08078125 94.60904297 19.08078125 95.92480469 18.14672852 C96.76140625 17.5750293 97.59800781 17.00333008 98.45996094 16.41430664 C99.2234082 15.8898999 99.98685547 15.36549316 100.7734375 14.82519531 C103.67996059 13.53852415 105.10272269 13.75328273 108.06933594 14.80883789 C118.38919729 29.19346096 119.75998332 47.83557056 117.38183594 64.87133789 C113.31967733 85.54632445 102.98228833 103.57013159 85.56933594 115.74633789 C79.9564272 119.41096425 74.3595432 122.48419608 68.06933594 124.80883789 C67.24175781 125.12723633 66.41417969 125.44563477 65.56152344 125.77368164 C51.43810897 130.24129234 32.60621155 130.02550087 19.06933594 123.80883789 C17.97621094 123.31125977 16.88308594 122.81368164 15.75683594 122.30102539 C8.11613926 118.49836385 2.05533686 113.85665638 -3.93066406 107.80883789 C-4.62804687 107.1449707 -5.32542969 106.48110352 -6.04394531 105.79711914 C-12.53891379 99.17603477 -16.30529197 91.23385099 -19.93066406 82.80883789 C-20.38957031 81.76598633 -20.84847656 80.72313477 -21.32128906 79.64868164 C-27.34723751 62.86514213 -26.18806554 40.98497372 -18.93066406 24.80883789 C-18.62531738 24.11838379 -18.3199707 23.42792969 -18.00537109 22.71655273 C-7.47888832 -0.74051208 -7.47888832 -0.74051208 0 0 Z " fill="#893850" transform="translate(102.9306640625,105.191162109375)"/>
<path d="M0 0 C0 0.99 0 1.98 0 3 C-5.94 3 -11.88 3 -18 3 C-18 2.67 -18 2.34 -18 2 C-11.93184478 0.77100654 -6.20104812 -0.27560214 0 0 Z " fill="#B42E44" transform="translate(420,332)"/>
</svg>
